<svg width="23" height="24" viewBox="0 0 23 24" fill="none" xmlns="http://www.w3.org/2000/svg">
    <rect y="0.0253906" width="23" height="23" rx="4" fill="#E9F1F1"/>
    <path d="M11.7338 4.02539C14.3442 4.02539 16.4678 6.12878 16.4678 8.71424C16.4678 9.41933 16.3136 10.097 16.0096 10.7288C16.0035 10.7423 15.997 10.7556 15.9902 10.7688L12.4135 17.6282C12.2822 17.8799 12.02 18.0381 11.7339 18.0381C11.4478 18.0381 11.1856 17.88 11.0543 17.6282L7.47859 10.7707C7.47241 10.7589 7.46666 10.747 7.46115 10.7349C7.15514 10.1013 7.00003 9.42157 7.00003 8.71424C6.99991 6.12878 9.12353 4.02539 11.7338 4.02539ZM11.7338 11.1685C13.1001 11.1685 14.2117 10.0675 14.2117 8.71424C14.2117 7.36103 13.1001 6.26006 11.7338 6.26006C10.3676 6.26006 9.256 7.36103 9.256 8.71424C9.256 10.0675 10.3676 11.1685 11.7338 11.1685Z" fill="#347474"/>
</svg>
