<svg width="23" height="24" viewBox="0 0 23 24" fill="none" xmlns="http://www.w3.org/2000/svg">
    <rect y="0.0253906" width="23" height="23" rx="4" fill="#E9F1F1"/>
    <path d="M14.0863 4.8584H14.0863C14.069 4.85844 14.0582 4.86147 14.0528 4.8636C14.0504 4.86453 14.0487 4.86539 14.0476 4.86605C14.0475 4.86722 14.0474 4.86883 14.0474 4.87095L13.5474 4.87214L14.0474 4.87139C14.0482 5.40517 13.616 5.83849 13.0823 5.83918L9.86096 5.84331C9.32735 5.84399 8.89416 5.41212 8.89319 4.87854M14.0863 4.8584L9.39319 4.87747M14.0863 4.8584C14.1119 4.85834 14.1224 4.86654 14.1241 4.86809C14.1243 4.86889 14.1244 4.87017 14.1244 4.872M14.0863 4.8584L14.1244 4.872M8.89319 4.87854C8.89319 4.87844 8.89319 4.87833 8.89319 4.87822L9.39319 4.87747M8.89319 4.87854C8.89319 4.87858 8.89319 4.87863 8.89319 4.87867L9.39319 4.87747M8.89319 4.87854C8.89318 4.87572 8.89297 4.87372 8.89276 4.87242M9.39319 4.87747C9.39249 4.58429 9.1617 4.3644 8.85398 4.36506C8.54627 4.36506 8.31548 4.58562 8.31618 4.87881M8.89276 4.87242C8.89395 4.87315 8.89432 4.87356 8.89414 4.87338C8.89374 4.873 8.89293 4.87196 8.89246 4.87086C8.89235 4.87061 8.89231 4.87048 8.89232 4.87048C8.89233 4.87048 8.89254 4.87108 8.89276 4.87242ZM8.89276 4.87242C8.89173 4.87179 8.89007 4.87091 8.88763 4.86997C8.88246 4.86797 8.87203 4.86503 8.85506 4.86506L8.85398 4.86507C8.83706 4.86506 8.8266 4.86803 8.82138 4.87006C8.8191 4.87095 8.81751 4.87177 8.81645 4.8724M8.81645 4.8724C8.81665 4.87084 8.81688 4.87014 8.8169 4.87012C8.81691 4.87011 8.81686 4.87029 8.81671 4.87064C8.81615 4.87197 8.81524 4.87311 8.81482 4.87352C8.81462 4.87371 8.81505 4.87323 8.81645 4.8724ZM8.81645 4.8724C8.8163 4.8736 8.81617 4.87532 8.81617 4.87761L8.31618 4.87881M8.31618 4.87881L8.81618 4.87811C8.81695 5.4325 8.39676 5.84488 7.91717 5.93806C7.18067 6.08116 6.61456 6.40949 6.23237 6.86755C5.85092 7.32473 5.62388 7.9456 5.625 8.72616L5.625 8.72619L5.6327 14.2774V14.2774C5.63395 15.2101 5.9456 15.9245 6.46194 16.4077C6.98182 16.8943 7.75929 17.1929 8.77365 17.1917L14.2418 17.1851C14.2418 17.1851 14.2419 17.1851 14.2419 17.1851C15.2673 17.1835 16.0439 16.889 16.5591 16.4106C17.0697 15.9363 17.3762 15.233 17.375 14.3028C17.375 14.3028 17.375 14.3028 17.375 14.3028L17.3673 8.68559V8.68545C17.3665 7.91536 17.1319 7.29791 16.7407 6.84251C16.3481 6.38558 15.7705 6.06016 15.0311 5.92523C14.5502 5.83746 14.1254 5.4274 14.1244 4.872M8.31618 4.87881C8.31657 5.16141 8.09922 5.39334 7.82181 5.44724C6.15782 5.77054 5.12246 6.96403 5.125 8.72688L14.1244 4.872M8.8571 6.92287L8.85818 6.92287C8.87336 6.92287 8.88276 6.92016 8.88764 6.91822C8.89269 6.91622 8.89488 6.91427 8.89545 6.91373C8.89551 6.91367 8.89557 6.91361 8.89562 6.91356C8.89576 6.9129 8.89598 6.9115 8.89598 6.90912H9.39598M8.8571 6.92287L14.0503 6.90738M8.8571 6.92287C8.84185 6.9229 8.83229 6.9202 8.82721 6.9182C8.82222 6.91624 8.81989 6.91431 8.81916 6.91364L8.8571 6.92287ZM9.39598 6.90912L8.89598 6.90977C8.89524 6.33591 9.35985 5.87011 9.93371 5.86937L13.0091 5.86542C13.5833 5.86469 14.0494 6.32959 14.0502 6.90381L13.5502 6.90446H14.0502C14.0502 6.90586 14.0503 6.9068 14.0503 6.90738M9.39598 6.90912C9.39598 7.19631 9.1659 7.42287 8.85818 7.42287L9.39598 6.90912ZM14.0503 6.90738C14.0501 6.90718 14.05 6.90706 14.05 6.90702C14.0499 6.90693 14.0501 6.90714 14.0503 6.90763C14.0506 6.90826 14.0505 6.9083 14.0503 6.90738Z" stroke="#347474"/>
    <circle cx="8.5" cy="11.5254" r="1" fill="#347474"/>
    <circle cx="11.5" cy="11.5254" r="1" fill="#347474"/>
    <circle cx="14.5" cy="11.5254" r="1" fill="#347474"/>
    <circle cx="14.5" cy="14.5254" r="1" fill="#347474"/>
    <circle cx="11.5" cy="14.5254" r="1" fill="#347474"/>
    <circle cx="8.5" cy="14.5254" r="1" fill="#347474"/>
</svg>
