<svg width="23" height="24" viewBox="0 0 23 24" fill="none" xmlns="http://www.w3.org/2000/svg">
    <rect y="0.0253906" width="23" height="23" rx="4" fill="#E9F1F1"/>
    <path fill-rule="evenodd" clip-rule="evenodd" d="M11.8963 18.4668C9.43515 18.4668 7.33333 18.0838 7.33333 16.5499C7.33333 15.0161 9.42181 13.6001 11.8963 13.6001C14.3576 13.6001 16.4594 15.0024 16.4594 16.5362C16.4594 18.0694 14.3709 18.4668 11.8963 18.4668Z" stroke="#347474" stroke-linecap="round" stroke-linejoin="round"/>
    <path fill-rule="evenodd" clip-rule="evenodd" d="M11.8915 11.4746C13.5067 11.4746 14.8157 10.1655 14.8157 8.55034C14.8157 6.93519 13.5067 5.62549 11.8915 5.62549C10.2763 5.62549 8.96665 6.93519 8.96665 8.55034C8.96119 10.16 10.2612 11.4692 11.8709 11.4746C11.8781 11.4746 11.8848 11.4746 11.8915 11.4746Z" stroke="#347474" stroke-linecap="round" stroke-linejoin="round"/>
</svg>
