<svg width="23" height="24" viewBox="0 0 23 24" fill="none" xmlns="http://www.w3.org/2000/svg">
    <rect y="0.0253906" width="23" height="23" rx="4" fill="#E9F1F1"/>
    <g clip-path="url(#clip0_26_8655)">
        <path d="M16.9692 6.05497C16.9658 6.05163 16.9624 6.0483 16.959 6.04504C15.7136 4.80897 13.7286 4.68143 12.3363 5.7491C12.197 5.85565 12.0847 5.95254 11.983 6.05397C11.9801 6.0569 11.9772 6.05983 11.9744 6.06283L9.7462 8.29126C9.55102 8.48644 9.55102 8.8029 9.74627 8.99802C9.94152 9.19326 10.258 9.1932 10.453 8.99795L12.6894 6.76119C12.6918 6.75886 12.694 6.75653 12.6964 6.75419C12.7645 6.68689 12.8433 6.61959 12.9439 6.54269C13.944 5.77582 15.3703 5.86978 16.2618 6.76132C16.2647 6.76426 16.2677 6.76719 16.2707 6.77005C17.2471 7.75536 17.2443 9.35173 16.2624 10.334L14.0261 12.5706C13.8309 12.7658 13.8309 13.0822 14.0262 13.2774C14.1238 13.3749 14.2517 13.4237 14.3796 13.4237C14.5075 13.4237 14.6354 13.3749 14.733 13.2773L16.9694 11.0407C18.3436 9.66593 18.3436 7.4293 16.9692 6.05497Z" fill="#347474"/>
        <path d="M12.5454 14.0505L10.3103 16.2857C10.3059 16.2901 10.3015 16.2947 10.2972 16.2993C10.0501 16.5424 9.76019 16.7291 9.4346 16.8546C8.50201 17.2157 7.44294 16.9926 6.73704 16.2866C5.75294 15.3014 5.75294 13.6984 6.73704 12.7136L8.9732 10.4783C9.0669 10.3845 9.11961 10.2574 9.11961 10.1248V10.1239C9.11961 9.84781 8.8959 9.62451 8.61982 9.62451C8.47755 9.62451 8.34914 9.68415 8.25811 9.77964L6.03009 12.0068C4.65669 13.3814 4.65655 15.6182 6.02995 16.9932C6.70266 17.666 7.60447 18.0246 8.52293 18.0246C8.95035 18.0246 9.38149 17.9469 9.79464 17.787C10.2559 17.6093 10.6668 17.3425 11.0158 16.9943C11.0209 16.9893 11.0258 16.9841 11.0307 16.9788L13.2522 14.7573C13.4474 14.5621 13.4474 14.2457 13.2521 14.0505C13.0571 13.8554 12.7406 13.8554 12.5454 14.0505Z" fill="#347474"/>
        <path d="M8.94163 14.0817C9.03925 14.1794 9.16713 14.2281 9.29507 14.2281C9.42295 14.2281 9.5509 14.1794 9.64845 14.0818L14.0575 9.673C14.2527 9.47782 14.2527 9.16136 14.0575 8.96624C13.8624 8.771 13.5459 8.77106 13.3508 8.96618L8.94176 13.375C8.74645 13.5701 8.74645 13.8866 8.94163 14.0817Z" fill="#347474"/>
    </g>
    <defs>
        <clipPath id="clip0_26_8655">
            <rect width="13" height="13" fill="white" transform="translate(5 5.02539)"/>
        </clipPath>
    </defs>
</svg>
