<svg width="16" height="19" viewBox="0 0 16 19" fill="none" xmlns="http://www.w3.org/2000/svg">
    <path fill-rule="evenodd" clip-rule="evenodd" d="M0.5 8.37514C0.5 4.23526 3.89166 0.88916 7.99422 0.88916C12.1083 0.88916 15.5 4.23526 15.5 8.37514C15.5 10.4613 14.7562 12.398 13.5319 14.0396C12.1813 15.8503 10.5166 17.428 8.64283 18.6663C8.21398 18.9525 7.82695 18.9741 7.35628 18.6663C5.47183 17.428 3.80714 15.8503 2.46809 14.0396C1.24293 12.398 0.5 10.4613 0.5 8.37514ZM5.52441 8.60831C5.52441 9.99516 6.63391 11.0859 7.99431 11.0859C9.3556 11.0859 10.4758 9.99516 10.4758 8.60831C10.4758 7.23225 9.3556 6.08838 7.99431 6.08838C6.63391 6.08838 5.52441 7.23225 5.52441 8.60831Z" fill="#347474"/>
</svg>
