<svg width="44" height="45" viewBox="0 0 44 45" fill="none" xmlns="http://www.w3.org/2000/svg">
    <rect y="0.420166" width="44" height="44" rx="22" fill="white"/>
    <g clip-path="url(#clip0_26_6676)">
        <path d="M24.5853 29.2779C24.2189 30.767 22.9588 31.4401 21.8645 31.3799C20.787 31.3207 19.7199 30.584 19.4185 29.2779C19.3654 29.2779 19.3071 29.2779 19.2487 29.2779C18.3343 29.2779 17.42 29.2757 16.5056 29.2788C16.0476 29.2801 15.693 29.0997 15.4925 28.6834C15.2964 28.2758 15.3701 27.8954 15.6408 27.5316C15.9637 27.0973 16.2656 26.6467 16.571 26.1996C16.6978 26.014 16.743 25.8021 16.7425 25.577C16.7403 24.3616 16.7162 23.1458 16.7469 21.9314C16.804 19.6924 17.8504 18.055 19.8845 17.1182C22.8583 15.7489 26.4113 17.5465 27.116 20.7494C27.2046 21.1521 27.2423 21.5725 27.2485 21.9853C27.2656 23.1673 27.2577 24.3502 27.2524 25.5327C27.2511 25.8179 27.3253 26.0688 27.4902 26.3005C27.8018 26.7366 28.1098 27.1758 28.4147 27.6168C28.6529 27.9616 28.6832 28.3324 28.495 28.704C28.3063 29.0769 27.986 29.2735 27.5679 29.2766C26.6316 29.2836 25.6953 29.2788 24.759 29.2792C24.7002 29.2779 24.641 29.2779 24.5853 29.2779ZM27.5464 28.2183C27.2301 27.762 26.9286 27.3206 26.6198 26.8845C26.3354 26.4821 26.1999 26.039 26.2021 25.5463C26.2069 24.3643 26.2073 23.1818 26.2007 21.9998C26.1994 21.7331 26.1788 21.4632 26.1371 21.2C25.773 18.8952 23.4366 17.3034 21.1582 17.8014C19.1491 18.2406 17.7964 19.9149 17.7938 21.9687C17.792 23.1125 17.7811 24.2568 17.7986 25.4002C17.8078 26.0065 17.6477 26.5383 17.2848 27.0227C16.9979 27.4061 16.7355 27.8085 16.4508 28.2187C20.1538 28.2183 23.835 28.2183 27.5464 28.2183ZM23.4607 29.2862C22.4849 29.2862 21.5109 29.2862 20.5347 29.2862C20.7001 29.882 21.3477 30.3348 22.0155 30.3287C22.6688 30.323 23.3076 29.864 23.4607 29.2862Z" fill="#347474"/>
    </g>
    <defs>
        <clipPath id="clip0_26_6676">
            <rect width="13.2359" height="14.7298" fill="white" transform="translate(15.3821 16.6538)"/>
        </clipPath>
    </defs>
</svg>
