<svg width="14" height="17" viewBox="0 0 14 17" fill="none" xmlns="http://www.w3.org/2000/svg">
    <path fill-rule="evenodd" clip-rule="evenodd" d="M6 15.8213C6 16.0865 5.89464 16.3409 5.70711 16.5284C5.51957 16.7159 5.26522 16.8213 5 16.8213C4.73478 16.8213 4.48043 16.7159 4.29289 16.5284C4.10536 16.3409 4 16.0865 4 15.8213V4.82129C4 4.55607 4.10536 4.30172 4.29289 4.11418C4.48043 3.92665 4.73478 3.82129 5 3.82129C5.26522 3.82129 5.51957 3.92665 5.70711 4.11418C5.89464 4.30172 6 4.55607 6 4.82129V15.8213ZM2 15.8213C2 16.0865 1.89464 16.3409 1.70711 16.5284C1.51957 16.7159 1.26522 16.8213 1 16.8213C0.734784 16.8213 0.48043 16.7159 0.292893 16.5284C0.105357 16.3409 0 16.0865 0 15.8213V8.82129C0 8.55607 0.105357 8.30172 0.292893 8.11418C0.48043 7.92665 0.734784 7.82129 1 7.82129C1.26522 7.82129 1.51957 7.92665 1.70711 8.11418C1.89464 8.30172 2 8.55607 2 8.82129V15.8213ZM8 15.8213V6.82129C8 6.55607 8.10536 6.30172 8.29289 6.11418C8.48043 5.92665 8.73478 5.82129 9 5.82129C9.26522 5.82129 9.51957 5.92665 9.70711 6.11418C9.89464 6.30172 10 6.55607 10 6.82129V15.8213C10 16.0865 9.89464 16.3409 9.70711 16.5284C9.51957 16.7159 9.26522 16.8213 9 16.8213C8.73478 16.8213 8.48043 16.7159 8.29289 16.5284C8.10536 16.3409 8 16.0865 8 15.8213ZM12 1.82129C12 1.55607 12.1054 1.30172 12.2929 1.11418C12.4804 0.926646 12.7348 0.821289 13 0.821289C13.2652 0.821289 13.5196 0.926646 13.7071 1.11418C13.8946 1.30172 14 1.55607 14 1.82129V15.8213C14 16.0865 13.8946 16.3409 13.7071 16.5284C13.5196 16.7159 13.2652 16.8213 13 16.8213C12.7348 16.8213 12.4804 16.7159 12.2929 16.5284C12.1054 16.3409 12 16.0865 12 15.8213V1.82129Z" fill="white"/>
</svg>
