<svg width="14" height="15" viewBox="0 0 14 15" fill="none" xmlns="http://www.w3.org/2000/svg">
    <path d="M9.58532 12.679C9.21896 14.1681 7.95886 14.8412 6.86461 14.7811C5.78703 14.7218 4.71998 13.9852 4.41856 12.679C4.36547 12.679 4.30711 12.679 4.24876 12.679C3.3344 12.679 2.42003 12.6768 1.50567 12.6799C1.04761 12.6812 0.6931 12.5009 0.492589 12.0845C0.296466 11.6769 0.370177 11.2965 0.640888 10.9328C0.963811 10.4984 1.26567 10.0478 1.57105 9.6007C1.69785 9.4151 1.74304 9.20319 1.7426 8.97811C1.7404 7.76276 1.71627 6.54697 1.74699 5.3325C1.80402 3.09354 2.85045 1.45611 4.88451 0.519368C7.85838 -0.849984 11.4114 0.947591 12.116 4.1505C12.2047 4.55327 12.2424 4.9736 12.2486 5.38647C12.2657 6.56847 12.2578 7.75135 12.2525 8.93379C12.2512 9.21898 12.3253 9.46995 12.4903 9.70161C12.8018 10.1377 13.1098 10.5769 13.4148 11.0179C13.653 11.3627 13.6833 11.7335 13.4951 12.1051C13.3064 12.478 12.9861 12.6746 12.568 12.6777C11.6317 12.6847 10.6954 12.6799 9.75907 12.6803C9.70027 12.679 9.64104 12.679 9.58532 12.679ZM12.5465 11.6194C12.2301 11.1631 11.9287 10.7217 11.6198 10.2856C11.3355 9.88326 11.1999 9.44011 11.2021 8.94739C11.207 7.76539 11.2074 6.58295 11.2008 5.40094C11.1995 5.13418 11.1789 4.86435 11.1372 4.6011C10.773 2.29632 8.43666 0.704522 6.15821 1.20251C4.14916 1.6417 2.79648 3.31599 2.79385 5.36979C2.7921 6.51362 2.78113 7.6579 2.79868 8.80129C2.80789 9.40765 2.64775 9.93942 2.2849 10.4238C1.99795 10.8073 1.73558 11.2096 1.45083 11.6198C5.15391 11.6194 8.83505 11.6194 12.5465 11.6194ZM8.46079 12.6873C7.48501 12.6873 6.51097 12.6873 5.53475 12.6873C5.70016 13.2832 6.34776 13.736 7.01554 13.7298C7.66884 13.7241 8.30767 13.2652 8.46079 12.6873Z" fill="white"/>
</svg>
