<svg width="44" height="45" viewBox="0 0 44 45" fill="none" xmlns="http://www.w3.org/2000/svg">
    <rect y="0.821289" width="44" height="44" rx="22" fill="white"/>
    <path fill-rule="evenodd" clip-rule="evenodd" d="M21 29.8213C21 30.0865 20.8946 30.3409 20.7071 30.5284C20.5196 30.7159 20.2652 30.8213 20 30.8213C19.7348 30.8213 19.4804 30.7159 19.2929 30.5284C19.1054 30.3409 19 30.0865 19 29.8213V18.8213C19 18.5561 19.1054 18.3017 19.2929 18.1142C19.4804 17.9266 19.7348 17.8213 20 17.8213C20.2652 17.8213 20.5196 17.9266 20.7071 18.1142C20.8946 18.3017 21 18.5561 21 18.8213V29.8213ZM17 29.8213C17 30.0865 16.8946 30.3409 16.7071 30.5284C16.5196 30.7159 16.2652 30.8213 16 30.8213C15.7348 30.8213 15.4804 30.7159 15.2929 30.5284C15.1054 30.3409 15 30.0865 15 29.8213V22.8213C15 22.5561 15.1054 22.3017 15.2929 22.1142C15.4804 21.9266 15.7348 21.8213 16 21.8213C16.2652 21.8213 16.5196 21.9266 16.7071 22.1142C16.8946 22.3017 17 22.5561 17 22.8213V29.8213ZM23 29.8213V20.8213C23 20.5561 23.1054 20.3017 23.2929 20.1142C23.4804 19.9266 23.7348 19.8213 24 19.8213C24.2652 19.8213 24.5196 19.9266 24.7071 20.1142C24.8946 20.3017 25 20.5561 25 20.8213V29.8213C25 30.0865 24.8946 30.3409 24.7071 30.5284C24.5196 30.7159 24.2652 30.8213 24 30.8213C23.7348 30.8213 23.4804 30.7159 23.2929 30.5284C23.1054 30.3409 23 30.0865 23 29.8213ZM27 15.8213C27 15.5561 27.1054 15.3017 27.2929 15.1142C27.4804 14.9266 27.7348 14.8213 28 14.8213C28.2652 14.8213 28.5196 14.9266 28.7071 15.1142C28.8946 15.3017 29 15.5561 29 15.8213V29.8213C29 30.0865 28.8946 30.3409 28.7071 30.5284C28.5196 30.7159 28.2652 30.8213 28 30.8213C27.7348 30.8213 27.4804 30.7159 27.2929 30.5284C27.1054 30.3409 27 30.0865 27 29.8213V15.8213Z" fill="#347474"/>
</svg>
