<svg width="24" height="25" viewBox="0 0 24 25" fill="none" xmlns="http://www.w3.org/2000/svg">
    <g clip-path="url(#clip0_1_2430)">
        <rect y="0.321289" width="24" height="24" rx="4" fill="#347474"/>
        <g filter="url(#filter0_d_1_2430)">
            <path d="M15.3179 3.32129C15.6294 3.32129 15.8869 3.55751 15.9276 3.86399L15.9333 3.9492L15.9333 4.65893C18.4605 4.83438 20.008 6.48828 20 9.1585V16.7983C20 19.6286 18.2625 21.3213 15.4699 21.3213H8.53C5.74075 21.3213 4 19.5998 4 16.7349V9.1585C4 6.48925 5.55246 4.83488 8.07417 4.659L8.07425 3.9492C8.07425 3.60241 8.34976 3.32129 8.68963 3.32129C9.00117 3.32129 9.25865 3.55751 9.29939 3.86399L9.30501 3.9492L9.30489 4.64339H14.7022L14.7025 3.9492C14.7025 3.60241 14.978 3.32129 15.3179 3.32129ZM18.7689 10.776H5.23022L5.23076 16.7349C5.23076 18.8275 6.33703 19.9891 8.32797 20.0618L8.53 20.0655H15.4699C17.5952 20.0655 18.7692 18.9217 18.7692 16.7983L18.7689 10.776ZM15.6523 16.0437C15.9922 16.0437 16.2677 16.3248 16.2677 16.6716C16.2677 16.9895 16.0362 17.2522 15.7358 17.2938L15.6523 17.2995C15.3049 17.2995 15.0294 17.0184 15.0294 16.6716C15.0294 16.3537 15.2609 16.091 15.5612 16.0494L15.6523 16.0437ZM12.0114 16.0437C12.3512 16.0437 12.6267 16.3248 12.6267 16.6716C12.6267 16.9895 12.3952 17.2522 12.0949 17.2938L12.0114 17.2995C11.6639 17.2995 11.3884 17.0184 11.3884 16.6716C11.3884 16.3537 11.6199 16.091 11.9203 16.0494L12.0114 16.0437ZM8.36278 16.0437C8.70264 16.0437 8.97816 16.3248 8.97816 16.6716C8.97816 16.9895 8.74665 17.2522 8.44628 17.2938L8.35518 17.2995C8.01531 17.2995 7.73979 17.0184 7.73979 16.6716C7.73979 16.3537 7.9713 16.091 8.27167 16.0494L8.36278 16.0437ZM15.6523 12.7899C15.9922 12.7899 16.2677 13.071 16.2677 13.4178C16.2677 13.7357 16.0362 13.9984 15.7358 14.04L15.6523 14.0457C15.3049 14.0457 15.0294 13.7646 15.0294 13.4178C15.0294 13.0999 15.2609 12.8372 15.5612 12.7956L15.6523 12.7899ZM12.0114 12.7899C12.3512 12.7899 12.6267 13.071 12.6267 13.4178C12.6267 13.7357 12.3952 13.9984 12.0949 14.04L12.0114 14.0457C11.6639 14.0457 11.3884 13.7646 11.3884 13.4178C11.3884 13.0999 11.6199 12.8372 11.9203 12.7956L12.0114 12.7899ZM8.36278 12.7899C8.70264 12.7899 8.97816 13.071 8.97816 13.4178C8.97816 13.7357 8.74665 13.9984 8.44628 14.04L8.35518 14.0457C8.01531 14.0457 7.73979 13.7646 7.73979 13.4178C7.73979 13.0999 7.9713 12.8372 8.27167 12.7956L8.36278 12.7899ZM14.7022 5.89889H9.30489L9.30501 6.70427C9.30501 7.05105 9.0295 7.33217 8.68963 7.33217C8.37809 7.33217 8.12061 7.09595 8.07986 6.78947L8.07425 6.70427L8.07338 5.91798C6.23902 6.07382 5.23076 7.19723 5.23076 9.1585L5.23022 9.51959H18.7689L18.7692 9.15657C18.7751 7.19376 17.772 6.07268 15.9333 5.91778L15.9333 6.70427C15.9333 7.05105 15.6577 7.33217 15.3179 7.33217C15.0063 7.33217 14.7489 7.09595 14.7081 6.78947L14.7025 6.70427L14.7022 5.89889Z" fill="#FCFCFC"/>
        </g>
    </g>
    <defs>
        <filter id="filter0_d_1_2430" x="-6" y="-6.67871" width="36" height="38" filterUnits="userSpaceOnUse" color-interpolation-filters="sRGB">
            <feFlood flood-opacity="0" result="BackgroundImageFix"/>
            <feColorMatrix in="SourceAlpha" type="matrix" values="0 0 0 0 0 0 0 0 0 0 0 0 0 0 0 0 0 0 127 0" result="hardAlpha"/>
            <feOffset/>
            <feGaussianBlur stdDeviation="5"/>
            <feComposite in2="hardAlpha" operator="out"/>
            <feColorMatrix type="matrix" values="0 0 0 0 0 0 0 0 0 0 0 0 0 0 0 0 0 0 0.25 0"/>
            <feBlend mode="normal" in2="BackgroundImageFix" result="effect1_dropShadow_1_2430"/>
            <feBlend mode="normal" in="SourceGraphic" in2="effect1_dropShadow_1_2430" result="shape"/>
        </filter>
        <clipPath id="clip0_1_2430">
            <rect y="0.321289" width="24" height="24" rx="4" fill="white"/>
        </clipPath>
    </defs>
</svg>
