<svg width="16" height="19" viewBox="0 0 16 19" fill="none" xmlns="http://www.w3.org/2000/svg">
    <path d="M11.3179 0.321289C11.6294 0.321289 11.8869 0.557511 11.9276 0.863993L11.9333 0.949196L11.9333 1.65893C14.4605 1.83438 16.008 3.48828 16 6.1585V13.7983C16 16.6286 14.2625 18.3213 11.4699 18.3213H4.53C1.74075 18.3213 0 16.5998 0 13.7349V6.1585C0 3.48925 1.55246 1.83488 4.07417 1.659L4.07425 0.949196C4.07425 0.602413 4.34976 0.321289 4.68963 0.321289C5.00117 0.321289 5.25865 0.557511 5.29939 0.863993L5.30501 0.949196L5.30489 1.64339H10.7022L10.7025 0.949196C10.7025 0.602413 10.978 0.321289 11.3179 0.321289ZM14.7689 7.77599H1.23022L1.23076 13.7349C1.23076 15.8275 2.33703 16.9891 4.32797 17.0618L4.53 17.0655H11.4699C13.5952 17.0655 14.7692 15.9217 14.7692 13.7983L14.7689 7.77599ZM11.6523 13.0437C11.9922 13.0437 12.2677 13.3248 12.2677 13.6716C12.2677 13.9895 12.0362 14.2522 11.7358 14.2938L11.6523 14.2995C11.3049 14.2995 11.0294 14.0184 11.0294 13.6716C11.0294 13.3537 11.2609 13.091 11.5612 13.0494L11.6523 13.0437ZM8.01136 13.0437C8.35122 13.0437 8.62674 13.3248 8.62674 13.6716C8.62674 13.9895 8.39523 14.2522 8.09486 14.2938L8.01136 14.2995C7.66389 14.2995 7.38837 14.0184 7.38837 13.6716C7.38837 13.3537 7.61988 13.091 7.92025 13.0494L8.01136 13.0437ZM4.36278 13.0437C4.70264 13.0437 4.97816 13.3248 4.97816 13.6716C4.97816 13.9895 4.74665 14.2522 4.44628 14.2938L4.35518 14.2995C4.01531 14.2995 3.73979 14.0184 3.73979 13.6716C3.73979 13.3537 3.9713 13.091 4.27167 13.0494L4.36278 13.0437ZM11.6523 9.78987C11.9922 9.78987 12.2677 10.071 12.2677 10.4178C12.2677 10.7357 12.0362 10.9984 11.7358 11.04L11.6523 11.0457C11.3049 11.0457 11.0294 10.7646 11.0294 10.4178C11.0294 10.0999 11.2609 9.83718 11.5612 9.7956L11.6523 9.78987ZM8.01136 9.78987C8.35122 9.78987 8.62674 10.071 8.62674 10.4178C8.62674 10.7357 8.39523 10.9984 8.09486 11.04L8.01136 11.0457C7.66389 11.0457 7.38837 10.7646 7.38837 10.4178C7.38837 10.0999 7.61988 9.83718 7.92025 9.7956L8.01136 9.78987ZM4.36278 9.78987C4.70264 9.78987 4.97816 10.071 4.97816 10.4178C4.97816 10.7357 4.74665 10.9984 4.44628 11.04L4.35518 11.0457C4.01531 11.0457 3.73979 10.7646 3.73979 10.4178C3.73979 10.0999 3.9713 9.83718 4.27167 9.7956L4.36278 9.78987ZM10.7022 2.89889H5.30489L5.30501 3.70427C5.30501 4.05105 5.0295 4.33217 4.68963 4.33217C4.37809 4.33217 4.12061 4.09595 4.07986 3.78947L4.07425 3.70427L4.07338 2.91798C2.23902 3.07382 1.23076 4.19723 1.23076 6.1585L1.23022 6.51959H14.7689L14.7692 6.15657C14.7751 4.19376 13.772 3.07268 11.9333 2.91778L11.9333 3.70427C11.9333 4.05105 11.6577 4.33217 11.3179 4.33217C11.0063 4.33217 10.7489 4.09595 10.7081 3.78947L10.7025 3.70427L10.7022 2.89889Z" fill="#347474"/>
</svg>
