<svg width="16" height="17" viewBox="0 0 16 17" fill="none" xmlns="http://www.w3.org/2000/svg">
    <path d="M8.88392 8.27098L15.8169 1.30655C16.061 1.06135 16.061 0.663807 15.8169 0.41864C15.5728 0.173473 15.1771 0.173442 14.933 0.41864L7.99998 7.38307L1.06697 0.41864C0.822881 0.173442 0.427132 0.173442 0.18307 0.41864C-0.060992 0.663838 -0.0610233 1.06138 0.18307 1.30655L7.11608 8.27094L0.18307 15.2354C-0.0610233 15.4806 -0.0610233 15.8781 0.18307 16.1233C0.305101 16.2459 0.465069 16.3071 0.625037 16.3071C0.785006 16.3071 0.944943 16.2459 1.067 16.1233L7.99998 9.15888L14.933 16.1233C15.055 16.2459 15.215 16.3071 15.375 16.3071C15.5349 16.3071 15.6949 16.2459 15.8169 16.1233C16.061 15.8781 16.061 15.4805 15.8169 15.2354L8.88392 8.27098Z" fill="#787878"/>
</svg>
