<svg width="65" height="66" viewBox="0 0 65 66" fill="none" xmlns="http://www.w3.org/2000/svg">
    <path d="M55 0.362549H10C7.34872 0.365444 4.80687 1.41994 2.93213 3.29468C1.05739 5.16942 0.00289509 7.71127 0 10.3625V55.3625C0.00289509 58.0138 1.05739 60.5557 2.93213 62.4304C4.80687 64.3052 7.34872 65.3597 10 65.3625H55C57.6513 65.3597 60.1931 64.3052 62.0679 62.4304C63.9426 60.5557 64.9971 58.0138 65 55.3625V10.3625C64.9971 7.71127 63.9426 5.16942 62.0679 3.29468C60.1931 1.41994 57.6513 0.365444 55 0.362549ZM49.4141 21.9704L28.4141 46.9704C28.1837 47.2447 27.8971 47.4664 27.5736 47.6203C27.2501 47.7743 26.8973 47.8569 26.5391 47.8625H26.4969C26.1465 47.8624 25.8 47.7886 25.4799 47.646C25.1599 47.5033 24.8734 47.295 24.6391 47.0344L15.6391 37.0344C15.4105 36.792 15.2327 36.5063 15.1161 36.1942C14.9995 35.8821 14.9465 35.5498 14.9602 35.2169C14.9738 34.884 15.0539 34.5572 15.1957 34.2556C15.3375 33.9541 15.5381 33.684 15.7857 33.4611C16.0334 33.2382 16.3231 33.0671 16.6379 32.9578C16.9526 32.8485 17.286 32.8032 17.6185 32.8246C17.951 32.846 18.2759 32.9336 18.5741 33.0823C18.8722 33.2311 19.1376 33.4379 19.3547 33.6907L26.4313 41.5532L45.5859 18.7547C46.0156 18.258 46.6235 17.9503 47.2782 17.8981C47.9329 17.8459 48.5819 18.0535 49.0848 18.4759C49.5877 18.8984 49.9041 19.5018 49.9657 20.1556C50.0274 20.8095 49.8292 21.4614 49.4141 21.9704Z" fill="#347474"/>
</svg>
