<svg width="44" height="45" viewBox="0 0 44 45" fill="none" xmlns="http://www.w3.org/2000/svg">
    <rect y="0.821289" width="44" height="44" rx="22" fill="white"/>
    <path d="M19.9977 30.1487V25.1487H23.9977V30.1487C23.9977 30.6987 24.4477 31.1487 24.9977 31.1487H27.9977C28.5477 31.1487 28.9977 30.6987 28.9977 30.1487V23.1487H30.6977C31.1577 23.1487 31.3777 22.5787 31.0277 22.2787L22.6677 14.7487C22.2877 14.4087 21.7077 14.4087 21.3277 14.7487L12.9677 22.2787C12.6277 22.5787 12.8377 23.1487 13.2977 23.1487H14.9977V30.1487C14.9977 30.6987 15.4477 31.1487 15.9977 31.1487H18.9977C19.5477 31.1487 19.9977 30.6987 19.9977 30.1487Z" fill="#347474"/>
</svg>
