<svg width="104" height="127" viewBox="0 0 104 127" fill="none" xmlns="http://www.w3.org/2000/svg">
    <g clip-path="url(#clip0_0_1)">
        <path d="M50.7832 1.11363C49.5664 1.51343 48.4887 2.41734 47.9324 3.52984C47.776 3.82534 47.5848 4.62495 47.4979 5.2855C47.2197 7.45835 46.7504 7.87554 43.6389 8.77945C42.3525 9.14449 40.9445 9.59644 40.51 9.78765L39.693 10.1353L39.2236 9.49214C38.5805 8.65777 37.468 7.80601 36.5119 7.45835C35.2777 6.98902 33.3482 7.05855 32.1488 7.59742C30.9494 8.15367 29.7848 9.26617 29.2285 10.4308C28.6201 11.665 28.5332 13.7162 29.0547 15.072C29.2459 15.6109 29.524 16.1498 29.6631 16.2541C29.8021 16.3757 29.9238 16.5496 29.9238 16.6191C29.9238 16.706 29.4545 17.2796 28.8982 17.888C27.4207 19.4699 26.2734 21.0865 26.2734 21.5906C26.2734 22.0947 26.9861 22.8595 27.4729 22.8595C28.0986 22.8595 28.3594 22.6509 29.4719 21.2255C30.0803 20.4607 30.932 19.4873 31.3492 19.0875L32.0967 18.3574L33.0527 18.6181C36.4076 19.5394 39.9885 17.071 40.3014 13.6466L40.4057 12.6384L41.8137 12.0996C42.5785 11.8041 43.9344 11.3869 44.8035 11.1435C46.8373 10.6046 47.5848 10.257 48.4365 9.38784C49.323 8.50132 49.8793 7.33667 50.0184 6.05035C50.1748 4.65972 50.3313 4.31207 50.9918 3.91226C51.6697 3.49507 52.1912 3.47769 52.8691 3.82534C53.5297 4.173 53.8426 4.7814 53.9816 6.05035C54.1207 7.33667 54.677 8.50132 55.5635 9.38784C56.4152 10.257 57.1627 10.6046 59.1965 11.1435C62.7252 12.0822 66.2365 13.7857 69.0525 15.9064C71.66 17.8533 71.5731 17.7142 70.9994 18.9658C70.5996 19.8175 70.5127 20.2173 70.5127 21.382C70.5301 23.0507 70.982 24.1111 72.1988 25.2236C73.4852 26.4056 75.3451 26.875 77.1703 26.4752C77.7266 26.3535 77.7613 26.3709 78.109 27.1705C78.7695 28.6828 79.6387 31.4293 80.0211 33.2023C80.2992 34.5234 80.4035 35.8619 80.4904 38.8169C80.5947 42.6412 80.5947 42.7107 81.0119 43.041C81.5508 43.4755 82.333 43.4582 82.785 43.0062C83.15 42.6412 83.15 42.5369 83.0631 38.6084C82.9936 35.1666 82.9066 34.2974 82.5242 32.4896C82.0549 30.2646 81.0988 27.3269 80.4035 25.9537C79.8994 24.9455 79.882 24.7021 80.334 24.0763C80.5252 23.7982 80.8207 23.0681 80.9598 22.4597C81.1857 21.5558 81.2031 21.1734 81.0467 20.4085C80.4035 17.3318 77.7266 15.5066 74.6498 16.0802L73.5199 16.3062L72.8072 15.5935C69.5914 12.5168 64.2549 9.66597 59.492 8.5187C58.6229 8.31011 58.0318 8.04937 57.6147 7.68433C56.8324 6.98902 56.676 6.67613 56.5022 5.2855C56.2762 3.44292 55.4592 2.19136 53.999 1.4439C53.2516 1.06148 51.4959 0.870266 50.7832 1.11363ZM35.3646 9.8398C36.1816 10.0658 37.2072 10.9349 37.5027 11.6824C38.7195 14.5853 35.4516 17.3666 32.7398 15.6978C30.8973 14.5679 30.8451 11.439 32.6529 10.3265C33.6959 9.68335 34.3564 9.56167 35.3646 9.8398ZM76.9617 18.8789C79.0303 19.8697 79.0129 22.7378 76.927 23.746C75.9361 24.2154 75.0149 24.1285 74.1457 23.4679C72.4943 22.199 72.7725 19.6959 74.6672 18.8441C75.5885 18.4269 76.0578 18.4269 76.9617 18.8789Z" fill="#38A98E"/>
        <path d="M76.6836 1.40913C75.0322 2.01752 73.8154 3.13002 73.0506 4.78139C72.6855 5.56362 72.616 5.99819 72.5986 7.21498C72.5986 8.48393 72.6682 8.84897 73.1027 9.77026C74.2674 12.2908 77.066 13.8031 79.6734 13.3164C81.6898 12.9513 83.3934 11.665 84.2973 9.82241C84.7145 8.98803 84.7666 8.65776 84.7666 7.21498C84.7666 5.73745 84.7145 5.45932 84.2799 4.64233C83.5846 3.33862 82.5416 2.26088 81.4117 1.70463C80.1775 1.11362 77.9178 0.957172 76.6836 1.40913ZM80.2992 4.0687C83.1674 5.54624 82.7676 9.73549 79.6734 10.622C78.3697 11.0044 77.2572 10.7263 76.249 9.75288C74.8932 8.44916 74.7541 6.5892 75.9187 5.02475C76.8053 3.82534 78.926 3.37338 80.2992 4.0687Z" fill="#DEDEDE"/>
        <path d="M18.6424 6.45019C18.4338 6.71093 18.2773 7.02382 18.2773 7.16288C18.2773 7.52792 18.7119 8.29277 19.1291 8.67519L19.4941 9.00546L18.8857 9.66601C18.1904 10.4482 18.1383 10.8133 18.6424 11.4564C19.1465 12.0996 19.9809 12.0648 20.7457 11.4043L21.3193 10.9002L21.893 11.4043C22.5883 12.0301 23.4922 12.0822 24.0137 11.526C24.5178 10.9697 24.4482 10.2918 23.8225 9.56171L23.2836 8.95331L23.8225 8.34492C24.483 7.59746 24.5178 6.90214 23.9615 6.38066C23.3705 5.82441 22.6578 5.89394 21.9799 6.5371L21.4236 7.09335L20.7979 6.5371C19.9809 5.82441 19.1639 5.78964 18.6424 6.45019Z" fill="#E9F1F1"/>
        <path d="M84.1756 15.8369C83.967 16.0977 83.8105 16.4279 83.8105 16.6018C83.8105 16.9147 84.6102 18.0967 85.0795 18.4965C85.3576 18.7051 85.3055 18.8094 84.5928 19.5742C84.1582 20.0262 83.8105 20.5303 83.8105 20.6693C83.8105 21.1908 84.2103 21.7992 84.6623 21.9904C85.2707 22.2338 85.8096 22.0252 86.5744 21.2256L87.1654 20.6172L87.826 21.1908C88.1736 21.5211 88.643 21.8688 88.8342 21.9731C89.3035 22.2338 90.0162 22.0426 90.3291 21.5906C90.7811 20.9301 90.642 20.3043 89.8771 19.4699L89.1471 18.6877L89.8771 17.9055C90.6941 17.019 90.8158 16.3063 90.2422 15.7326C89.6512 15.1416 88.8863 15.2807 88.0346 16.115L87.3045 16.8277L86.5223 16.115C85.5488 15.2111 84.7318 15.1242 84.1756 15.8369Z" fill="#9BDDCF"/>
        <path d="M23.8225 26.0754C23.1793 26.423 22.1711 29.1869 21.3715 32.8199C21.0412 34.2974 21.0064 35.2709 20.8848 45.1095C20.7457 56.391 20.6936 57.1037 19.8418 60.2326C18.8684 63.7265 17.6516 66.247 15.2875 69.5324C14.0707 71.2359 12.993 73.4957 12.6975 74.9558C12.4889 75.9466 12.5062 76.1205 12.8191 76.8505C13.0104 77.3199 13.4275 77.8935 13.81 78.2064L14.4879 78.7453L28.2898 78.7974L42.0918 78.8322V80.275C42.0918 81.9263 42.4742 83.4734 42.9957 83.908C43.465 84.3252 44.2646 84.3078 44.7166 83.8558C45.0121 83.5603 45.0643 83.3517 44.9773 82.7781C44.9252 82.3783 44.8209 81.3179 44.7687 80.4488L44.6645 78.8322H51.9131H59.1617L59.0922 80.3619C59.04 81.6134 58.9184 82.0828 58.4838 83.0388C56.8324 86.5849 52.7996 88.2363 49.2535 86.8457C48.0715 86.3763 47.7238 86.3937 47.2197 86.9152C46.2984 87.8191 46.8025 88.7056 48.6104 89.3662C50.2617 89.9746 52.2434 90.0963 53.9643 89.7138C55.9633 89.2619 57.267 88.5318 58.7967 87.0195C60.8131 85.0031 61.7344 82.8129 61.7344 80.049V78.8322L75.6232 78.7974L89.5121 78.7453L90.19 78.2064C90.5725 77.8935 90.9897 77.3199 91.1809 76.8505C91.4938 76.1205 91.5111 75.9466 91.3025 74.9558C90.9897 73.4088 89.9641 71.3402 88.4518 69.2195C85.8617 65.5517 84.2799 61.7449 83.5324 57.3644C83.3934 56.4779 83.2195 54.0965 83.1674 51.8541C83.0631 47.5779 83.0457 47.5257 82.0549 47.2824C81.7072 47.1955 81.4813 47.2824 81.0988 47.5953C80.5947 48.0299 80.5947 48.0472 80.5426 50.3244C80.4209 54.7222 80.9772 59.0853 82.0896 62.3707C82.3678 63.2224 82.5938 63.9351 82.5938 63.9873C82.5938 64.022 68.8266 64.0568 52 64.0568C35.1734 64.0568 21.4062 64.0047 21.4062 63.9177C21.4062 63.8482 21.5627 63.3963 21.7365 62.9095C22.1885 61.7275 22.71 59.6416 23.075 57.6252C23.301 56.2693 23.3879 54.0791 23.4922 45.3703C23.6312 33.5326 23.6486 33.3588 24.9871 29.5519C25.3348 28.5959 25.6477 27.5703 25.6998 27.2922C25.8562 26.284 24.7437 25.5539 23.8225 26.0754ZM84.5232 67.9158C84.9231 68.6111 85.6879 69.8105 86.2441 70.5754C87.9129 72.9046 89.0428 75.3035 88.782 75.964C88.6951 76.19 84.0887 76.2248 51.9652 76.19L15.2354 76.1379L15.2527 75.6164C15.3049 74.7298 15.9828 73.2002 16.9736 71.7748C17.9645 70.3146 19.3898 68.0896 19.8766 67.2031L20.1721 66.6642H51.9826H83.7932L84.5232 67.9158Z" fill="#38A98E"/>
        <path d="M43.3955 39.0255C42.6654 39.8251 43.2738 41.1636 44.3342 41.1636C45.4467 41.1636 46.0029 39.8077 45.2207 39.0255C44.7688 38.5735 43.8127 38.5735 43.3955 39.0255Z" fill="#38A98E"/>
        <path d="M58.6228 39.1299C58.0318 39.8947 58.2057 40.6248 59.0922 41.0941C59.5789 41.3549 60.4307 41.0767 60.6914 40.5726C61.4215 39.2168 59.5615 37.9305 58.6228 39.1299Z" fill="#38A98E"/>
        <path d="M50.6789 43.8927C49.6012 44.0491 48.4539 44.5532 47.7064 45.179C46.9937 45.7874 46.9242 46.587 47.5326 47.1607C48.0715 47.6822 48.5234 47.6474 49.6707 47.0042C50.4703 46.5523 50.818 46.448 51.7393 46.448C52.6605 46.448 53.0082 46.5523 53.8078 47.0042C54.3467 47.2997 54.9725 47.5431 55.2158 47.5431C55.8416 47.5431 56.3457 46.9695 56.3457 46.2568C56.3457 44.7966 53.2689 43.5103 50.6789 43.8927Z" fill="#38A98E"/>
    </g>
    <path d="M0.596 125.957V116.157H1.45L8.212 124.669H7.764V116.157H8.786V125.957H7.932L1.184 117.445H1.632V125.957H0.596ZM14.7707 126.027C14.0613 126.027 13.422 125.868 12.8527 125.551C12.2927 125.224 11.8493 124.781 11.5227 124.221C11.196 123.652 11.0327 123.003 11.0327 122.275C11.0327 121.538 11.196 120.889 11.5227 120.329C11.8493 119.769 12.2927 119.33 12.8527 119.013C13.4127 118.696 14.052 118.537 14.7707 118.537C15.4987 118.537 16.1427 118.696 16.7027 119.013C17.272 119.33 17.7153 119.769 18.0327 120.329C18.3593 120.889 18.5227 121.538 18.5227 122.275C18.5227 123.003 18.3593 123.652 18.0327 124.221C17.7153 124.781 17.272 125.224 16.7027 125.551C16.1333 125.868 15.4893 126.027 14.7707 126.027ZM14.7707 125.145C15.3027 125.145 15.774 125.028 16.1847 124.795C16.5953 124.552 16.9173 124.216 17.1507 123.787C17.3933 123.348 17.5147 122.844 17.5147 122.275C17.5147 121.696 17.3933 121.192 17.1507 120.763C16.9173 120.334 16.5953 120.002 16.1847 119.769C15.774 119.526 15.3073 119.405 14.7847 119.405C14.262 119.405 13.7953 119.526 13.3847 119.769C12.974 120.002 12.6473 120.334 12.4047 120.763C12.162 121.192 12.0407 121.696 12.0407 122.275C12.0407 122.844 12.162 123.348 12.4047 123.787C12.6473 124.216 12.974 124.552 13.3847 124.795C13.7953 125.028 14.2573 125.145 14.7707 125.145ZM24.4261 125.957V116.157H25.2801L32.0421 124.669H31.5941V116.157H32.6161V125.957H31.7621L25.0141 117.445H25.4621V125.957H24.4261ZM38.6008 126.027C37.8914 126.027 37.2521 125.868 36.6828 125.551C36.1228 125.224 35.6794 124.781 35.3528 124.221C35.0261 123.652 34.8628 123.003 34.8628 122.275C34.8628 121.538 35.0261 120.889 35.3528 120.329C35.6794 119.769 36.1228 119.33 36.6828 119.013C37.2428 118.696 37.8821 118.537 38.6008 118.537C39.3288 118.537 39.9728 118.696 40.5328 119.013C41.1021 119.33 41.5454 119.769 41.8628 120.329C42.1894 120.889 42.3528 121.538 42.3528 122.275C42.3528 123.003 42.1894 123.652 41.8628 124.221C41.5454 124.781 41.1021 125.224 40.5328 125.551C39.9634 125.868 39.3194 126.027 38.6008 126.027ZM38.6008 125.145C39.1328 125.145 39.6041 125.028 40.0148 124.795C40.4254 124.552 40.7474 124.216 40.9808 123.787C41.2234 123.348 41.3448 122.844 41.3448 122.275C41.3448 121.696 41.2234 121.192 40.9808 120.763C40.7474 120.334 40.4254 120.002 40.0148 119.769C39.6041 119.526 39.1374 119.405 38.6148 119.405C38.0921 119.405 37.6254 119.526 37.2148 119.769C36.8041 120.002 36.4774 120.334 36.2348 120.763C35.9921 121.192 35.8708 121.696 35.8708 122.275C35.8708 122.844 35.9921 123.348 36.2348 123.787C36.4774 124.216 36.8041 124.552 37.2148 124.795C37.6254 125.028 38.0874 125.145 38.6008 125.145ZM46.7061 126.027C46.0154 126.027 45.4834 125.84 45.1101 125.467C44.7368 125.094 44.5501 124.566 44.5501 123.885V116.983H45.5441V123.829C45.5441 124.258 45.6514 124.59 45.8661 124.823C46.0901 125.056 46.4074 125.173 46.8181 125.173C47.2568 125.173 47.6208 125.047 47.9101 124.795L48.2601 125.509C48.0641 125.686 47.8261 125.817 47.5461 125.901C47.2754 125.985 46.9954 126.027 46.7061 126.027ZM43.2341 119.433V118.607H47.7841V119.433H43.2341ZM50.0696 125.957V118.607H51.0636V125.957H50.0696ZM50.5736 116.983C50.3683 116.983 50.1956 116.913 50.0556 116.773C49.9156 116.633 49.8456 116.465 49.8456 116.269C49.8456 116.073 49.9156 115.91 50.0556 115.779C50.1956 115.639 50.3683 115.569 50.5736 115.569C50.7789 115.569 50.9516 115.634 51.0916 115.765C51.2316 115.896 51.3016 116.059 51.3016 116.255C51.3016 116.46 51.2316 116.633 51.0916 116.773C50.9609 116.913 50.7883 116.983 50.5736 116.983ZM53.9974 125.957V117.683C53.9974 117.03 54.1887 116.502 54.5714 116.101C54.954 115.7 55.5047 115.499 56.2234 115.499C56.5034 115.499 56.774 115.536 57.0354 115.611C57.2967 115.686 57.516 115.802 57.6934 115.961L57.3574 116.703C57.2174 116.582 57.054 116.493 56.8674 116.437C56.6807 116.372 56.48 116.339 56.2654 116.339C55.8454 116.339 55.5234 116.456 55.2994 116.689C55.0754 116.922 54.9634 117.268 54.9634 117.725V118.845L54.9914 119.307V125.957H53.9974ZM52.6814 119.433V118.607H57.2314V119.433H52.6814ZM58.5754 125.957V118.607H59.5694V125.957H58.5754ZM59.0794 116.983C58.874 116.983 58.7014 116.913 58.5614 116.773C58.4214 116.633 58.3514 116.465 58.3514 116.269C58.3514 116.073 58.4214 115.91 58.5614 115.779C58.7014 115.639 58.874 115.569 59.0794 115.569C59.2847 115.569 59.4574 115.634 59.5974 115.765C59.7374 115.896 59.8074 116.059 59.8074 116.255C59.8074 116.46 59.7374 116.633 59.5974 116.773C59.4667 116.913 59.294 116.983 59.0794 116.983ZM65.4126 126.027C64.6846 126.027 64.0313 125.868 63.4526 125.551C62.8833 125.224 62.4353 124.781 62.1086 124.221C61.7819 123.652 61.6186 123.003 61.6186 122.275C61.6186 121.538 61.7819 120.889 62.1086 120.329C62.4353 119.769 62.8833 119.33 63.4526 119.013C64.0313 118.696 64.6846 118.537 65.4126 118.537C66.0379 118.537 66.6026 118.658 67.1066 118.901C67.6106 119.144 68.0073 119.508 68.2966 119.993L67.5546 120.497C67.3026 120.124 66.9899 119.848 66.6166 119.671C66.2433 119.494 65.8373 119.405 65.3986 119.405C64.8759 119.405 64.4046 119.526 63.9846 119.769C63.5646 120.002 63.2333 120.334 62.9906 120.763C62.7479 121.192 62.6266 121.696 62.6266 122.275C62.6266 122.854 62.7479 123.358 62.9906 123.787C63.2333 124.216 63.5646 124.552 63.9846 124.795C64.4046 125.028 64.8759 125.145 65.3986 125.145C65.8373 125.145 66.2433 125.056 66.6166 124.879C66.9899 124.702 67.3026 124.431 67.5546 124.067L68.2966 124.571C68.0073 125.047 67.6106 125.411 67.1066 125.663C66.6026 125.906 66.0379 126.027 65.4126 126.027ZM74.8553 125.957V124.333L74.8133 124.067V121.351C74.8133 120.726 74.6359 120.245 74.2813 119.909C73.9359 119.573 73.4179 119.405 72.7273 119.405C72.2513 119.405 71.7986 119.484 71.3693 119.643C70.9399 119.802 70.5759 120.012 70.2773 120.273L69.8293 119.531C70.2026 119.214 70.6506 118.971 71.1733 118.803C71.6959 118.626 72.2466 118.537 72.8253 118.537C73.7773 118.537 74.5099 118.775 75.0233 119.251C75.5459 119.718 75.8073 120.432 75.8073 121.393V125.957H74.8553ZM72.3213 126.027C71.7706 126.027 71.2899 125.938 70.8793 125.761C70.4779 125.574 70.1699 125.322 69.9553 125.005C69.7406 124.678 69.6333 124.305 69.6333 123.885C69.6333 123.502 69.7219 123.157 69.8993 122.849C70.0859 122.532 70.3846 122.28 70.7953 122.093C71.2153 121.897 71.7753 121.799 72.4753 121.799H75.0093V122.541H72.5033C71.7939 122.541 71.2993 122.667 71.0193 122.919C70.7486 123.171 70.6133 123.484 70.6133 123.857C70.6133 124.277 70.7766 124.613 71.1033 124.865C71.4299 125.117 71.8873 125.243 72.4753 125.243C73.0353 125.243 73.5159 125.117 73.9173 124.865C74.3279 124.604 74.6266 124.23 74.8133 123.745L75.0373 124.431C74.8506 124.916 74.5239 125.304 74.0573 125.593C73.5999 125.882 73.0213 126.027 72.3213 126.027ZM80.8311 126.027C80.1404 126.027 79.6084 125.84 79.2351 125.467C78.8618 125.094 78.6751 124.566 78.6751 123.885V116.983H79.6691V123.829C79.6691 124.258 79.7764 124.59 79.9911 124.823C80.2151 125.056 80.5324 125.173 80.9431 125.173C81.3818 125.173 81.7458 125.047 82.0351 124.795L82.3851 125.509C82.1891 125.686 81.9511 125.817 81.6711 125.901C81.4004 125.985 81.1204 126.027 80.8311 126.027ZM77.3591 119.433V118.607H81.9091V119.433H77.3591ZM84.1946 125.957V118.607H85.1886V125.957H84.1946ZM84.6986 116.983C84.4933 116.983 84.3206 116.913 84.1806 116.773C84.0406 116.633 83.9706 116.465 83.9706 116.269C83.9706 116.073 84.0406 115.91 84.1806 115.779C84.3206 115.639 84.4933 115.569 84.6986 115.569C84.9039 115.569 85.0766 115.634 85.2166 115.765C85.3566 115.896 85.4266 116.059 85.4266 116.255C85.4266 116.46 85.3566 116.633 85.2166 116.773C85.0859 116.913 84.9133 116.983 84.6986 116.983ZM90.9504 126.027C90.241 126.027 89.6017 125.868 89.0324 125.551C88.4724 125.224 88.029 124.781 87.7024 124.221C87.3757 123.652 87.2124 123.003 87.2124 122.275C87.2124 121.538 87.3757 120.889 87.7024 120.329C88.029 119.769 88.4724 119.33 89.0324 119.013C89.5924 118.696 90.2317 118.537 90.9504 118.537C91.6784 118.537 92.3224 118.696 92.8824 119.013C93.4517 119.33 93.895 119.769 94.2124 120.329C94.539 120.889 94.7024 121.538 94.7024 122.275C94.7024 123.003 94.539 123.652 94.2124 124.221C93.895 124.781 93.4517 125.224 92.8824 125.551C92.313 125.868 91.669 126.027 90.9504 126.027ZM90.9504 125.145C91.4824 125.145 91.9537 125.028 92.3644 124.795C92.775 124.552 93.097 124.216 93.3304 123.787C93.573 123.348 93.6944 122.844 93.6944 122.275C93.6944 121.696 93.573 121.192 93.3304 120.763C93.097 120.334 92.775 120.002 92.3644 119.769C91.9537 119.526 91.487 119.405 90.9644 119.405C90.4417 119.405 89.975 119.526 89.5644 119.769C89.1537 120.002 88.827 120.334 88.5844 120.763C88.3417 121.192 88.2204 121.696 88.2204 122.275C88.2204 122.844 88.3417 123.348 88.5844 123.787C88.827 124.216 89.1537 124.552 89.5644 124.795C89.975 125.028 90.437 125.145 90.9504 125.145ZM100.484 118.537C101.081 118.537 101.604 118.654 102.052 118.887C102.509 119.111 102.864 119.456 103.116 119.923C103.377 120.39 103.508 120.978 103.508 121.687V125.957H102.514V121.785C102.514 121.01 102.318 120.427 101.926 120.035C101.543 119.634 101.002 119.433 100.302 119.433C99.779 119.433 99.3217 119.54 98.9297 119.755C98.547 119.96 98.2484 120.264 98.0337 120.665C97.8284 121.057 97.7257 121.533 97.7257 122.093V125.957H96.7317V118.607H97.6837V120.623L97.5297 120.245C97.763 119.713 98.1364 119.298 98.6497 118.999C99.163 118.691 99.7744 118.537 100.484 118.537Z" fill="#2C2C2C"/>
    <defs>
        <clipPath id="clip0_0_1">
            <rect width="89" height="89" fill="white" transform="translate(7.5 0.957153)"/>
        </clipPath>
    </defs>
</svg>
