<svg width="28" height="26" viewBox="0 0 28 26" fill="none" xmlns="http://www.w3.org/2000/svg">
<path d="M24.4167 9.24267V0.5H21.75V3.16667H5.75V0.5H3.08333V9.24267C1.49667 10.1667 0.416667 11.8667 0.416667 13.8333V19.1667C0.416667 19.5203 0.557143 19.8594 0.807191 20.1095C1.05724 20.3595 1.39638 20.5 1.75 20.5H3.08333V25.8333H5.75V20.5H21.75V25.8333H24.4167V20.5H25.75C26.1036 20.5 26.4428 20.3595 26.6928 20.1095C26.9429 19.8594 27.0833 19.5203 27.0833 19.1667V13.8333C27.0833 11.8667 26.002 10.1667 24.4167 9.24267ZM21.75 5.83333V8.5H15.0833V5.83333H21.75ZM5.75 5.83333H12.4167V8.5H5.75V5.83333ZM24.4167 17.8333H3.08333V13.8333C3.08333 12.3627 4.27933 11.1667 5.75 11.1667H21.75C23.2207 11.1667 24.4167 12.3627 24.4167 13.8333V17.8333Z" fill="#626244"/>
</svg>
