<svg xmlns="http://www.w3.org/2000/svg" viewBox="0 0 48 48"><defs><style>.cls-1{fill:#347474;}.cls-2{fill:#347474;}.cls-3{fill:#dad7e5;}.cls-4{fill:#edebf2;}</style></defs><title>Telephone</title><g id="Telephone"><path class="cls-1" d="M40,32.85V37H8V32.85a3,3,0,0,1,1.66-2.68C14.5,27.76,13.94,28.46,15,21H33l.7,4.93C34.34,30.26,40,28.94,40,32.85Z"/><path class="cls-2" d="M40,35H11a1,1,0,0,1-1-1V32.85c0-3.9,5.67-2.62,6.3-6.92L17,21H33c1,7.33.39,6.7,5.34,9.17C40.31,31.15,40,33,40,35Z"/><path class="cls-3" d="M28,29a4,4,0,1,1-6.28-3.28A4,4,0,0,1,28,29Z"/><path class="cls-4" d="M27.28,31.28a4,4,0,0,1-5.56-5.56A4,4,0,0,1,27.28,31.28Z"/><path class="cls-1" d="M11,17v2a2,2,0,0,1-2,2H3a2,2,0,0,1-2-2V17Z"/><path class="cls-2" d="M11,17v2H5a2,2,0,0,1-2-2Z"/><path class="cls-1" d="M47,17H37v-.72a1.69,1.69,0,0,0-1.23-1.63,42.77,42.77,0,0,0-23.53,0A1.7,1.7,0,0,0,11,16.28V17H1c0-2.1-.32-3.79,1.34-4.89C11.28,6.14,18.72,7,28.79,7a30.45,30.45,0,0,1,16.87,5.11C47.32,13.22,47,14.9,47,17Z"/><path class="cls-2" d="M47,17H37v-.72a1.69,1.69,0,0,0-1.23-1.63,41.33,41.33,0,0,0-23.54,0c-1.45.42,2.09.35-9.23.35a3.13,3.13,0,0,1,1.34-2.89C13.19,6.2,20.86,7,28.79,7a30.45,30.45,0,0,1,16.87,5.11C47.32,13.22,47,14.9,47,17Z"/><path class="cls-1" d="M47,17v2a2,2,0,0,1-2,2H39a2,2,0,0,1-2-2V17Z"/><path class="cls-2" d="M24,30a1,1,0,1,1,.2-2A1,1,0,0,1,24,30Z"/><path class="cls-1" d="M40,37v2a2,2,0,0,1-2,2H10a2,2,0,0,1-2-2V37Z"/><path class="cls-2" d="M40,37v2H12a2,2,0,0,1-2-2Z"/><path class="cls-1" d="M19,18v3H15V18a1,1,0,0,1,1-1h2A1,1,0,0,1,19,18Z"/><path class="cls-2" d="M19,18v2a3,3,0,0,1-3-3h2A1,1,0,0,1,19,18Z"/><path class="cls-1" d="M30,17h2a1,1,0,0,1,1,1v3a0,0,0,0,1,0,0H29a0,0,0,0,1,0,0V18A1,1,0,0,1,30,17Z"/><path class="cls-2" d="M33,18v2a3,3,0,0,1-3-3h2A1,1,0,0,1,33,18Z"/><path class="cls-2" d="M47,17v2H41a2,2,0,0,1-2-2Z"/></g></svg>
