<svg width="16" height="17" viewBox="0 0 16 17" fill="none" xmlns="http://www.w3.org/2000/svg">
    <path d="M8 2.82129C9.1 2.82129 10 3.72129 10 4.82129C10 5.92129 9.1 6.82129 8 6.82129C6.9 6.82129 6 5.92129 6 4.82129C6 3.72129 6.9 2.82129 8 2.82129ZM8 12.8213C10.7 12.8213 13.8 14.1113 14 14.8213H2C2.23 14.1013 5.31 12.8213 8 12.8213ZM8 0.821289C5.79 0.821289 4 2.61129 4 4.82129C4 7.03129 5.79 8.82129 8 8.82129C10.21 8.82129 12 7.03129 12 4.82129C12 2.61129 10.21 0.821289 8 0.821289ZM8 10.8213C5.33 10.8213 0 12.1613 0 14.8213V16.8213H16V14.8213C16 12.1613 10.67 10.8213 8 10.8213Z" fill="white"/>
</svg>
