<svg width="44" height="45" viewBox="0 0 44 45" fill="none" xmlns="http://www.w3.org/2000/svg">
    <rect y="0.821289" width="44" height="44" rx="22" fill="white"/>
    <path d="M22 16.8213C23.1 16.8213 24 17.7213 24 18.8213C24 19.9213 23.1 20.8213 22 20.8213C20.9 20.8213 20 19.9213 20 18.8213C20 17.7213 20.9 16.8213 22 16.8213ZM22 26.8213C24.7 26.8213 27.8 28.1113 28 28.8213H16C16.23 28.1013 19.31 26.8213 22 26.8213ZM22 14.8213C19.79 14.8213 18 16.6113 18 18.8213C18 21.0313 19.79 22.8213 22 22.8213C24.21 22.8213 26 21.0313 26 18.8213C26 16.6113 24.21 14.8213 22 14.8213ZM22 24.8213C19.33 24.8213 14 26.1613 14 28.8213V30.8213H30V28.8213C30 26.1613 24.67 24.8213 22 24.8213Z" fill="#347474"/>
</svg>
