<svg width="16" height="13" viewBox="0 0 16 13" fill="none" xmlns="http://www.w3.org/2000/svg">
    <path fill-rule="evenodd" clip-rule="evenodd" d="M8.00218 0.000488281C11.1042 0.00273828 13.8897 2.17699 15.4542 5.81749C15.5157 5.95924 15.5157 6.11974 15.4542 6.26149C13.8904 9.90274 11.1042 12.077 8.00218 12.0792H7.99768C4.89568 12.077 2.11018 9.90274 0.545685 6.26149C0.484935 6.11974 0.484935 5.95924 0.545685 5.81749C2.11018 2.17699 4.89643 0.00273828 7.99768 0.000488281H8.00218ZM7.99993 1.12549C5.42293 1.12624 3.07243 2.95849 1.67743 6.03949C3.07243 9.12124 5.42218 10.9535 7.99993 10.9542C10.5777 10.9535 12.9274 9.12124 14.3224 6.03949C12.9274 2.95849 10.5777 1.12624 7.99993 1.12549ZM7.99971 3.10609C9.61746 3.10609 10.9337 4.42234 10.9337 6.04009C10.9337 7.65709 9.61746 8.97259 7.99971 8.97259C6.38196 8.97259 5.06646 7.65709 5.06646 6.04009C5.06646 4.42234 6.38196 3.10609 7.99971 3.10609ZM7.99971 4.23109C7.00221 4.23109 6.19146 5.04259 6.19146 6.04009C6.19146 7.03684 7.00221 7.84759 7.99971 7.84759C8.99721 7.84759 9.80871 7.03684 9.80871 6.04009C9.80871 5.04259 8.99721 4.23109 7.99971 4.23109Z" fill="#83B7AD"/>
</svg>
