<svg width="46" height="45" viewBox="0 0 46 45" fill="none" xmlns="http://www.w3.org/2000/svg">
    <circle cx="23.0488" cy="22.5732" r="22.5488" fill="#347474"/>
    <path d="M23.6738 20.4732C23.6738 20.2345 23.7726 20.0056 23.9484 19.8368C24.1242 19.6681 24.3627 19.5732 24.6113 19.5732H28.9863C29.235 19.5732 29.4734 19.6681 29.6492 19.8368C29.8251 20.0056 29.9238 20.2345 29.9238 20.4732C29.9238 20.7119 29.8251 20.9409 29.6492 21.1096C29.4734 21.2784 29.235 21.3732 28.9863 21.3732H24.6113C24.3627 21.3732 24.1242 21.2784 23.9484 21.1096C23.7726 20.9409 23.6738 20.7119 23.6738 20.4732ZM24.6113 26.1732C24.3627 26.1732 24.1242 26.2681 23.9484 26.4368C23.7726 26.6056 23.6738 26.8345 23.6738 27.0732C23.6738 27.3119 23.7726 27.5409 23.9484 27.7096C24.1242 27.8784 24.3627 27.9732 24.6113 27.9732H28.9863C29.235 27.9732 29.4734 27.8784 29.6492 27.7096C29.8251 27.5409 29.9238 27.3119 29.9238 27.0732C29.9238 26.8345 29.8251 26.6056 29.6492 26.4368C29.4734 26.2681 29.235 26.1732 28.9863 26.1732H24.6113ZM21.5238 19.9092C21.6159 19.8268 21.6898 19.7275 21.7411 19.6171C21.7923 19.5067 21.8198 19.3875 21.8221 19.2667C21.8243 19.1458 21.8011 19.0258 21.754 18.9137C21.7068 18.8017 21.6366 18.6999 21.5476 18.6144C21.4586 18.5289 21.3526 18.4616 21.2358 18.4163C21.1191 18.371 20.9941 18.3488 20.8682 18.3509C20.7423 18.3531 20.6182 18.3795 20.5032 18.4287C20.3882 18.4779 20.2847 18.5488 20.1988 18.6372L18.3613 20.4012L17.7738 19.8372C17.5961 19.6783 17.3611 19.5917 17.1182 19.5958C16.8753 19.5999 16.6436 19.6944 16.4718 19.8593C16.3 20.0242 16.2016 20.2467 16.1974 20.4798C16.1931 20.713 16.2832 20.9386 16.4488 21.1092L17.6988 22.3092C17.8746 22.4778 18.1129 22.5725 18.3613 22.5725C18.6098 22.5725 18.848 22.4778 19.0238 22.3092L21.5238 19.9092ZM21.5238 25.2372C21.6994 25.406 21.798 25.6347 21.798 25.8732C21.798 26.1117 21.6994 26.3405 21.5238 26.5092L19.0238 28.9092C18.848 29.0778 18.6098 29.1725 18.3613 29.1725C18.1129 29.1725 17.8746 29.0778 17.6988 28.9092L16.4488 27.7092C16.3567 27.6269 16.2828 27.5275 16.2316 27.4171C16.1804 27.3067 16.1528 27.1875 16.1506 27.0667C16.1484 26.9458 16.1715 26.8258 16.2187 26.7137C16.2658 26.6017 16.336 26.4999 16.425 26.4144C16.5141 26.3289 16.6201 26.2616 16.7368 26.2163C16.8536 26.171 16.9786 26.1488 17.1045 26.1509C17.2304 26.1531 17.3545 26.1795 17.4695 26.2287C17.5845 26.2779 17.688 26.3488 17.7738 26.4372L18.3613 27.0012L20.1988 25.2372C20.3746 25.0687 20.6129 24.974 20.8613 24.974C21.1098 24.974 21.348 25.0687 21.5238 25.2372ZM28.0413 13.074C27.9889 12.3943 27.6707 11.7587 27.1504 11.2948C26.6301 10.831 25.9464 10.5732 25.2363 10.5732H20.8613C20.1695 10.5733 19.502 10.8181 18.9864 11.2608C18.4708 11.7036 18.1432 12.3132 18.0663 12.9732H15.8613C15.1154 12.9732 14.4 13.2577 13.8726 13.7641C13.3451 14.2704 13.0488 14.9572 13.0488 15.6732V31.8732C13.0488 32.5893 13.3451 33.2761 13.8726 33.7824C14.4 34.2888 15.1154 34.5732 15.8613 34.5732H30.2363C30.6057 34.5732 30.9714 34.5034 31.3126 34.3677C31.6539 34.232 31.9639 34.0331 32.2251 33.7824C32.4862 33.5317 32.6934 33.2341 32.8347 32.9065C32.9761 32.5789 33.0488 32.2278 33.0488 31.8732V15.6732C33.0488 15.3187 32.9761 14.9676 32.8347 14.64C32.6934 14.3124 32.4862 14.0148 32.2251 13.7641C31.9639 13.5133 31.6539 13.3145 31.3126 13.1788C30.9714 13.0431 30.6057 12.9732 30.2363 12.9732H28.0313L28.0413 13.074ZM28.0413 13.0884L28.0488 13.2732C28.0488 13.2108 28.0463 13.1496 28.0426 13.0884H28.0413ZM20.8613 15.9732H25.2363C26.2113 15.9732 27.0701 15.4968 27.5751 14.7732H30.2363C30.485 14.7732 30.7234 14.8681 30.8992 15.0368C31.0751 15.2056 31.1738 15.4345 31.1738 15.6732V31.8732C31.1738 32.1119 31.0751 32.3409 30.8992 32.5096C30.7234 32.6784 30.485 32.7732 30.2363 32.7732H15.8613C15.6127 32.7732 15.3742 32.6784 15.1984 32.5096C15.0226 32.3409 14.9238 32.1119 14.9238 31.8732V15.6732C14.9238 15.4345 15.0226 15.2056 15.1984 15.0368C15.3742 14.8681 15.6127 14.7732 15.8613 14.7732H18.5226C19.0276 15.4968 19.8863 15.9732 20.8613 15.9732ZM20.8613 12.3732H25.2363C25.485 12.3732 25.7234 12.4681 25.8992 12.6368C26.0751 12.8056 26.1738 13.0345 26.1738 13.2732C26.1738 13.5119 26.0751 13.7409 25.8992 13.9096C25.7234 14.0784 25.485 14.1732 25.2363 14.1732H20.8613C20.6127 14.1732 20.3742 14.0784 20.1984 13.9096C20.0226 13.7409 19.9238 13.5119 19.9238 13.2732C19.9238 13.0345 20.0226 12.8056 20.1984 12.6368C20.3742 12.4681 20.6127 12.3732 20.8613 12.3732Z" fill="white"/>
</svg>
