<svg width="46" height="46" viewBox="0 0 46 46" fill="none" xmlns="http://www.w3.org/2000/svg">
    <circle cx="23.1465" cy="23.3701" r="22.5488" fill="#347474"/>
    <path d="M32.1465 15.8701C32.1465 15.4723 31.9884 15.0908 31.7071 14.8095C31.4258 14.5282 31.0443 14.3701 30.6465 14.3701H27.6465V12.8701H26.1465V14.3701H20.1465V12.8701H18.6465V14.3701H15.6465C15.2487 14.3701 14.8671 14.5282 14.5858 14.8095C14.3045 15.0908 14.1465 15.4723 14.1465 15.8701V30.8701C14.1465 31.2679 14.3045 31.6495 14.5858 31.9308C14.8671 32.2121 15.2487 32.3701 15.6465 32.3701H18.6465V30.8701H15.6465V15.8701H18.6465V17.3701H20.1465V15.8701H26.1465V17.3701H27.6465V15.8701H30.6465V20.3701H32.1465V15.8701Z" fill="#FCFCFC"/>
    <path d="M26.8965 22.6201L28.8082 26.3236L32.8965 26.9169L29.8965 29.7999L30.6465 33.8701L26.8965 31.9486L23.1465 33.8701L23.8965 29.7999L20.8965 26.9169L25.0965 26.3236L26.8965 22.6201Z" fill="#FCFCFC"/>
</svg>
