<svg width="46" height="45" viewBox="0 0 46 45" fill="none" xmlns="http://www.w3.org/2000/svg">
    <circle cx="23.2441" cy="22.5732" r="22.5488" fill="#347474"/>
    <g clip-path="url(#clip0_0_1)">
        <path d="M33.2875 28.2295L33.2876 28.2298C33.3224 28.3319 33.2961 28.4451 33.2195 28.5217L33.2194 28.5218L31.0022 30.7395C30.877 30.8648 30.6683 30.8455 30.5682 30.7007L30.5679 30.7003L27.2581 25.9193L31.17 22.0073L33.2875 28.2295Z" stroke="#FCFCFC"/>
        <path d="M15.1166 15.25L15.1161 15.2497C14.9714 15.1498 14.9517 14.9413 15.0773 14.8157C15.0773 14.8157 15.0773 14.8157 15.0773 14.8157L17.2947 12.5989C17.2947 12.5988 17.2948 12.5988 17.2948 12.5988C17.3714 12.5224 17.4849 12.496 17.5879 12.5307C17.588 12.5307 17.5881 12.5307 17.5883 12.5308L23.8096 14.648L19.8975 18.5598L15.1166 15.25Z" stroke="#FCFCFC"/>
        <path d="M19.294 22.4805L19.5564 22.5329L19.7456 22.3437L30.2431 11.8462C31.2741 10.8153 32.9406 10.8158 33.9709 11.8462C35.0019 12.8772 35.0014 14.5436 33.971 15.5741C33.971 15.5741 33.971 15.5741 33.971 15.5741L23.4735 26.0716L23.2843 26.2608L23.3367 26.5232L23.8089 28.8838V28.8841C23.8275 28.9765 23.7985 29.0729 23.7312 29.1402L21.5135 31.3573L21.5128 31.358C21.3782 31.4931 21.1461 31.4575 21.0587 31.2837C21.0586 31.2836 21.0585 31.2834 21.0584 31.2833L18.9583 27.0825L18.8838 26.9334L18.7347 26.8589L14.5339 24.7588C14.5339 24.7587 14.5338 24.7587 14.5338 24.7587C14.3604 24.6717 14.3234 24.4402 14.4599 24.3037H14.4599L16.6771 22.086C16.6771 22.086 16.6771 22.086 16.6771 22.0859C16.7432 22.0199 16.8404 21.9901 16.9341 22.0085C16.9342 22.0085 16.9344 22.0085 16.9345 22.0086L19.294 22.4805Z" stroke="#FCFCFC"/>
        <path d="M12.4056 31.815H12.4056L15.5416 28.679C15.5416 28.679 15.5416 28.679 15.5416 28.679C15.7501 28.4704 15.7501 28.1326 15.5416 27.924L12.4056 31.815ZM12.4056 31.815C12.197 32.0236 11.8593 32.0236 11.6506 31.815C11.442 31.6064 11.442 31.2685 11.6506 31.0599L14.7865 27.924C14.9951 27.7154 15.333 27.7154 15.5416 27.924L12.4056 31.815Z" stroke="#FCFCFC" stroke-width="0.5"/>
        <path d="M17.8931 30.2757H17.8932C18.1017 30.4842 18.1018 30.8221 17.8931 31.0307L14.7572 34.1666H14.7572C14.5486 34.3752 14.2108 34.3753 14.0022 34.1666C13.7936 33.958 13.7936 33.6202 14.0022 33.4116L17.1381 30.2757C17.3467 30.067 17.6845 30.067 17.8931 30.2757Z" stroke="#FCFCFC" stroke-width="0.5"/>
    </g>
    <defs>
        <clipPath id="clip0_0_1">
            <rect width="24" height="24" fill="white" transform="translate(11.2441 10.5732)"/>
        </clipPath>
    </defs>
</svg>
