<svg width="17" height="19" viewBox="0 0 17 19" fill="none" xmlns="http://www.w3.org/2000/svg">
    <path fill-rule="evenodd" clip-rule="evenodd" d="M12.1063 1.11492L12.1072 1.78958C14.5558 1.98389 16.1733 3.67324 16.1759 6.26394L16.1855 13.8471C16.1891 16.6717 14.4364 18.4097 11.6272 18.4142L4.76501 18.4232C1.97328 18.4268 0.198725 16.6474 0.195214 13.8148L0.18556 6.32062C0.18205 3.71282 1.74247 2.02796 4.19104 1.80038L4.19017 1.12572C4.18929 0.729913 4.4789 0.432162 4.86506 0.432162C5.25121 0.431263 5.54083 0.728114 5.54171 1.12392L5.54259 1.7536L10.7557 1.7464L10.7548 1.11672C10.7539 0.720918 11.0435 0.424066 11.4297 0.423166C11.8071 0.422267 12.1055 0.719119 12.1063 1.11492ZM1.53799 6.59857L14.8252 6.58058V6.26573C14.7875 4.3317 13.8291 3.31701 12.109 3.16589L12.1099 3.85854C12.1099 4.24535 11.8124 4.55209 11.435 4.55209C11.0488 4.55299 10.7583 4.24714 10.7583 3.86034L10.7574 3.1317L5.54435 3.1389L5.54523 3.86664C5.54523 4.25434 5.25649 4.56019 4.87034 4.56019C4.48418 4.56109 4.19369 4.25614 4.19369 3.86843L4.19281 3.17578C2.48144 3.34939 1.53448 4.36768 1.53712 6.31881L1.53799 6.59857ZM11.0645 10.6871V10.697C11.0732 11.1108 11.4067 11.4248 11.8113 11.4158C12.2062 11.4059 12.5213 11.0631 12.5125 10.6494C12.4941 10.2535 12.1773 9.93061 11.7832 9.93151C11.3795 9.94051 11.0636 10.2733 11.0645 10.6871ZM11.7909 14.726C11.3872 14.7171 11.0616 14.3761 11.0607 13.9623C11.0519 13.5485 11.3758 13.2058 11.7795 13.1959H11.7883C12.2008 13.1959 12.5351 13.5368 12.5351 13.9596C12.536 14.3824 12.2025 14.7251 11.7909 14.726ZM7.44922 10.7014C7.46677 11.1152 7.80115 11.4381 8.20486 11.4201C8.59979 11.4012 8.91486 11.0594 8.8973 10.6456C8.88765 10.2408 8.56293 9.92597 8.168 9.92687C7.76429 9.94486 7.44834 10.2876 7.44922 10.7014ZM8.20876 14.6856C7.80505 14.7036 7.47156 14.3806 7.45313 13.9669C7.45313 13.5531 7.76819 13.2112 8.1719 13.1923C8.56683 13.1914 8.89243 13.5063 8.90121 13.9102C8.91964 14.3249 8.60369 14.6667 8.20876 14.6856ZM3.83399 10.7331C3.85154 11.1469 4.18591 11.4708 4.58962 11.4519C4.98455 11.4339 5.29962 11.0911 5.28119 10.6773C5.27242 10.2726 4.94769 9.95771 4.55188 9.95861C4.14818 9.9766 3.83311 10.3193 3.83399 10.7331ZM4.59354 14.6899C4.18983 14.7087 3.85633 14.3849 3.8379 13.9711C3.83702 13.5573 4.15297 13.2146 4.55668 13.1966C4.95161 13.1957 5.27721 13.5105 5.28598 13.9153C5.30441 14.3291 4.98934 14.6719 4.59354 14.6899Z" fill="#FCFCFC"/>
</svg>
