<svg width="27" height="23" viewBox="0 0 27 23" fill="none" xmlns="http://www.w3.org/2000/svg">
<path d="M14.55 9.09999C15.2252 9.09999 15.894 9.10639 16.5788 9.35279C17.2396 9.58959 17.9708 10.0744 18.6844 11.1448C18.7427 11.2322 18.8177 11.3073 18.905 11.3657C18.9923 11.4241 19.0903 11.4648 19.1933 11.4854C19.2963 11.506 19.4024 11.5061 19.5055 11.4856C19.6086 11.4652 19.7066 11.4247 19.794 11.3664C19.8814 11.3081 19.9565 11.2331 20.0149 11.1458C20.0734 11.0585 20.114 10.9605 20.1346 10.8575C20.1552 10.7544 20.1553 10.6484 20.1348 10.5453C20.1144 10.4422 20.0739 10.3442 20.0156 10.2568C19.1276 8.92559 18.1276 8.20879 17.1196 7.84719C16.158 7.49999 15.238 7.49999 14.582 7.49999H14.55C14.3378 7.49999 14.1343 7.58427 13.9843 7.7343C13.8343 7.88433 13.75 8.08781 13.75 8.29999C13.75 8.51216 13.8343 8.71564 13.9843 8.86567C14.1343 9.0157 14.3378 9.09999 14.55 9.09999ZM10.55 3.49999V4.76399C5.9244 6.13999 2.55 10.4264 2.55 15.5C2.55 15.7122 2.63428 15.9156 2.78431 16.0657C2.93434 16.2157 3.13782 16.3 3.35 16.3H24.15C24.3622 16.3 24.5657 16.2157 24.7157 16.0657C24.8657 15.9156 24.95 15.7122 24.95 15.5C24.9498 13.0878 24.1712 10.74 22.7299 8.80569C21.2885 6.87142 19.2615 5.45394 16.95 4.76399V3.49999C16.95 2.65129 16.6129 1.83736 16.0127 1.23725C15.4126 0.63713 14.5987 0.299988 13.75 0.299988C12.9013 0.299988 12.0874 0.63713 11.4873 1.23725C10.8871 1.83736 10.55 2.65129 10.55 3.49999ZM13.75 1.89999C14.1743 1.89999 14.5813 2.06856 14.8814 2.36862C15.1814 2.66868 15.35 3.07564 15.35 3.49999V4.41199C14.2887 4.26014 13.2113 4.26014 12.15 4.41199V3.49999C12.15 3.07564 12.3186 2.66868 12.6186 2.36862C12.9187 2.06856 13.3257 1.89999 13.75 1.89999ZM13.75 5.89999C16.1578 5.89964 18.4779 6.80413 20.2501 8.43411C22.0223 10.0641 23.1173 12.3005 23.318 14.7H4.182C4.38265 12.3005 5.47765 10.0641 7.24989 8.43411C9.02212 6.80413 11.3422 5.89964 13.75 5.89999ZM3.35 17.9C2.71348 17.9 2.10303 18.1528 1.65294 18.6029C1.20285 19.053 0.949997 19.6635 0.949997 20.3C0.949997 20.9365 1.20285 21.547 1.65294 21.997C2.10303 22.4471 2.71348 22.7 3.35 22.7H24.15C24.7865 22.7 25.397 22.4471 25.8471 21.997C26.2971 21.547 26.55 20.9365 26.55 20.3C26.55 19.6635 26.2971 19.053 25.8471 18.6029C25.397 18.1528 24.7865 17.9 24.15 17.9H3.35ZM2.55 20.3C2.55 20.0878 2.63428 19.8843 2.78431 19.7343C2.93434 19.5843 3.13782 19.5 3.35 19.5H24.15C24.3622 19.5 24.5657 19.5843 24.7157 19.7343C24.8657 19.8843 24.95 20.0878 24.95 20.3C24.95 20.5122 24.8657 20.7156 24.7157 20.8657C24.5657 21.0157 24.3622 21.1 24.15 21.1H3.35C3.13782 21.1 2.93434 21.0157 2.78431 20.8657C2.63428 20.7156 2.55 20.5122 2.55 20.3Z" fill="#626244"/>
</svg>
